<?xml version="1.0" encoding="utf-8"?>
<!-- Generator: Adobe Illustrator 21.0.0, SVG Export Plug-In . SVG Version: 6.00 Build 0)  -->
<svg version="1.1" id="图层_1" xmlns="http://www.w3.org/2000/svg" xmlns:xlink="http://www.w3.org/1999/xlink" x="0px" y="0px"
	 viewBox="0 0 25 25" style="enable-background:new 0 0 25 25;" xml:space="preserve">
<style type="text/css">
	.st0{display:none;}
	.st1{display:inline;}
	.st2{fill:#F77D19;}
</style>
<g id="图层_1_1_" class="st0">
	<g class="st1">
		<path d="M4.9,0.1v4.8H0.1V0.1H4.9 M5,0H0v5h5V0L5,0z"/>
	</g>
	<g class="st1">
		<path d="M9.9,0.1v4.8H5.1V0.1H9.9 M10,0H5v5h5V0L10,0z"/>
	</g>
	<g class="st1">
		<path d="M14.9,0.1v4.8h-4.8V0.1H14.9 M15,0h-5v5h5V0L15,0z"/>
	</g>
	<g class="st1">
		<path d="M19.9,0.1v4.8h-4.8V0.1H19.9 M20,0h-5v5h5V0L20,0z"/>
	</g>
	<g class="st1">
		<path d="M24.9,0.1v4.8h-4.8V0.1H24.9 M25,0h-5v5h5V0L25,0z"/>
	</g>
	<g class="st1">
		<path d="M4.9,5.1v4.8H0.1V5.1H4.9 M5,5H0v5h5V5L5,5z"/>
	</g>
	<g class="st1">
		<path d="M9.9,5.1v4.8H5.1V5.1H9.9 M10,5H5v5h5V5L10,5z"/>
	</g>
	<g class="st1">
		<path d="M14.9,5.1v4.8h-4.8V5.1H14.9 M15,5h-5v5h5V5L15,5z"/>
	</g>
	<g class="st1">
		<path d="M19.9,5.1v4.8h-4.8V5.1H19.9 M20,5h-5v5h5V5L20,5z"/>
	</g>
	<g class="st1">
		<path d="M24.9,5.1v4.8h-4.8V5.1H24.9 M25,5h-5v5h5V5L25,5z"/>
	</g>
	<g class="st1">
		<path d="M4.9,10.1v4.8H0.1v-4.8H4.9 M5,10H0v5h5V10L5,10z"/>
	</g>
	<g class="st1">
		<path d="M9.9,10.1v4.8H5.1v-4.8H9.9 M10,10H5v5h5V10L10,10z"/>
	</g>
	<g class="st1">
		<path d="M14.9,10.1v4.8h-4.8v-4.8H14.9 M15,10h-5v5h5V10L15,10z"/>
	</g>
	<g class="st1">
		<path d="M19.9,10.1v4.8h-4.8v-4.8H19.9 M20,10h-5v5h5V10L20,10z"/>
	</g>
	<g class="st1">
		<path d="M24.9,10.1v4.8h-4.8v-4.8H24.9 M25,10h-5v5h5V10L25,10z"/>
	</g>
	<g class="st1">
		<path d="M4.9,15.1v4.8H0.1v-4.8L4.9,15.1 M5,15H0v5h5V15L5,15z"/>
	</g>
	<g class="st1">
		<path d="M9.9,15.1v4.8H5.1v-4.8L9.9,15.1 M10,15H5v5h5V15L10,15z"/>
	</g>
	<g class="st1">
		<path d="M14.9,15.1v4.8h-4.8v-4.8L14.9,15.1 M15,15h-5v5h5V15L15,15z"/>
	</g>
	<g class="st1">
		<path d="M19.9,15.1v4.8h-4.8v-4.8L19.9,15.1 M20,15h-5v5h5V15L20,15z"/>
	</g>
	<g class="st1">
		<path d="M24.9,15.1v4.8h-4.8v-4.8L24.9,15.1 M25,15h-5v5h5V15L25,15z"/>
	</g>
	<g class="st1">
		<path d="M4.9,20.1v4.8H0.1v-4.8L4.9,20.1 M5,20H0v5h5V20L5,20z"/>
	</g>
	<g class="st1">
		<path d="M9.9,20.1v4.8H5.1v-4.8L9.9,20.1 M10,20H5v5h5V20L10,20z"/>
	</g>
	<g class="st1">
		<path d="M14.9,20.1v4.8h-4.8v-4.8L14.9,20.1 M15,20h-5v5h5V20L15,20z"/>
	</g>
	<g class="st1">
		<path d="M19.9,20.1v4.8h-4.8v-4.8L19.9,20.1 M20,20h-5v5h5V20L20,20z"/>
	</g>
	<g class="st1">
		<path d="M24.9,20.1v4.8h-4.8v-4.8L24.9,20.1 M25,20h-5v5h5V20L25,20z"/>
	</g>
</g>
<path class="st2" d="M19.2,11.1V8.4l0,0c-0.2-3.5-3.1-6.3-6.7-6.3S6,4.9,5.8,8.4l0,0v2.8l0,0V23h13.4V11.1L19.2,11.1z M8.3,8.4
	L8.3,8.4c0.2-2.1,2-3.8,4.2-3.8s4,1.7,4.2,3.8l0,0v2.8H8.3V8.4z"/>
</svg>
